<svg width="60" height="60" viewBox="0 0 60 60" fill="none" xmlns="http://www.w3.org/2000/svg">
<mask id="mask0_8010_19971" style="mask-type:alpha" maskUnits="userSpaceOnUse" x="0" y="0" width="60" height="60">
<circle cx="30" cy="30" r="30" fill="#DDF4F4"/>
</mask>
<g mask="url(#mask0_8010_19971)">
<circle cx="30" cy="30" r="30" fill="#DDF4F4"/>
<g clip-path="url(#clip0_8010_19971)">
<path d="M7.62549 41.7056C7.62549 41.7056 7.76926 30.254 12.9454 23.4927C16.4372 18.9266 21.4798 14.8574 30.4045 14.8574C38.1378 14.8574 43.4064 17.5909 47.2063 21.6911C54.1386 29.1772 54.3235 40.9084 54.3235 40.9084L7.62549 41.7056Z" fill="#C6C5B7"/>
<path d="M58 40.3604L4 40.6295L4.10271 41.6649L6.73184 41.7271C7.06731 41.7517 7.39165 41.859 7.67637 42.0395C7.96109 42.2201 8.19749 42.4683 8.36478 42.7625L9.28908 43.8497C9.89501 44.6366 10.1826 44.8851 11.569 44.8851H49.9072C50.428 44.8857 50.9434 44.7774 51.4206 44.5671C51.8979 44.3568 52.3267 44.0491 52.6801 43.6633L53.6147 42.6279C53.8956 42.32 54.2369 42.0745 54.6171 41.9069C54.9972 41.7394 55.4078 41.6534 55.8227 41.6546H57.8767L58 40.3604Z" fill="#878680"/>
<path d="M30.0759 12.28C30.0759 12.28 28.4327 12.9426 28.7921 14.2783C29.1516 15.614 31.7294 15.4691 32.0991 14.4751C32.1726 14.1861 32.1729 13.8832 32.1 13.5941C32.0271 13.3051 31.8834 13.0391 31.682 12.8206C31.4806 12.6021 31.228 12.4381 30.9474 12.3436C30.6667 12.2492 30.3671 12.2273 30.0759 12.28V12.28Z" stroke="#71706A" stroke-width="0.5" stroke-miterlimit="10"/>
<path d="M8.13867 24.3314C8.13867 24.3314 12.0002 24.9423 12.0002 19.7549C12.4829 24.466 15.8001 24.2693 15.8001 24.2693C14.7553 24.5739 13.8356 25.2097 13.1771 26.0825C12.5186 26.9552 12.1563 28.0185 12.144 29.115C12.2065 27.9533 11.8268 26.8113 11.0824 25.9223C10.338 25.0333 9.28511 24.4643 8.13867 24.3314Z" fill="#398087"/>
<path d="M39.0312 30.1093C39.0312 30.1093 41.3215 30.4717 41.3215 27.3965C41.609 30.1921 43.5706 30.0679 43.5706 30.0679C42.9518 30.2514 42.4076 30.6298 42.0176 31.1478C41.6277 31.6658 41.4125 32.2961 41.4036 32.9463C41.4396 32.2581 41.2144 31.5818 40.7738 31.0549C40.3332 30.5279 39.7102 30.1898 39.0312 30.1093Z" fill="#1E4B51"/>
<path d="M30.3223 49.2848C30.7125 48.9845 34.4303 46.0853 35.18 45.899C36.7715 45.5506 38.4 45.4046 40.0275 45.4641L36.9465 49.8542L30.3223 49.2848Z" fill="#B17C52"/>
<path d="M39.5653 44.8643C39.3804 45.1645 35.6318 49.1302 35.6318 49.1302L39.3393 49.2544L43.7657 44.8643H39.5653Z" fill="#C38C61"/>
<path d="M5.7666 55.8182C5.85903 55.5179 12.7092 46.2716 13.4794 45.961C14.2497 45.6504 29.9115 41.9229 30.9385 42.3889C31.9655 42.8548 32.7152 43.6314 32.1401 44.3355C30.6759 45.4603 29.1312 46.4743 27.5186 47.3692C27.5186 47.3692 29.6958 49.2019 31.3596 49.1708C33.0233 49.1397 38.3638 48.446 38.3638 48.446L43.1702 44.9049H48.8084C48.8084 44.9049 41.1881 53.4574 40.2227 53.768C39.2573 54.0787 20.6479 54.8759 20.6479 54.8759L14.6913 62.0513L5.7666 55.8182Z" fill="#DBB18E"/>
<path d="M27.6109 47.4834C27.1385 47.7215 22.291 50.3929 22.291 50.3929" stroke="#C7956E" stroke-width="0.5" stroke-miterlimit="10"/>
<path d="M43.9404 24.9841C43.9404 24.9841 48.983 25.7814 48.983 19.0098C49.5992 25.1601 53.9332 24.8909 53.9332 24.8909C52.569 25.2922 51.3687 26.1245 50.509 27.2653C49.6492 28.4061 49.1755 29.795 49.1576 31.2276C49.3322 25.6054 43.9404 24.9841 43.9404 24.9841Z" fill="white"/>
<path d="M34.6255 42.4721L55.4532 41.7266C54.7456 41.8627 54.1008 42.2259 53.6148 42.762C52.9781 42.8137 34.6255 42.4721 34.6255 42.4721Z" fill="#71706A"/>
<path d="M7.62549 41.7064L54.3132 40.9091C54.3132 40.9091 54.3132 40.7124 54.3132 40.3604L7.69739 40.5881C7.6255 41.3129 7.62549 41.7064 7.62549 41.7064Z" fill="#71706A"/>
</g>
</g>
<defs>
<clipPath id="clip0_8010_19971">
<rect width="54" height="50" fill="white" transform="translate(4 12)"/>
</clipPath>
</defs>
</svg>
